# Blender v2.76 (sub 0) OBJ File: 'ship.blend'
# www.blender.org
mtllib ship.mtl
o Cube
v 0.036673 10.126047 0.002636
v 0.035968 4.004178 0.735468
v 0.035968 -2.221066 -0.970492
v 0.035968 -0.997043 0.975767
v 0.035968 3.772234 -0.673479
v -3.684975 0.372322 0.386245
v -5.456945 -2.964267 -0.236702
v -8.347981 -6.801523 -0.268670
v -8.408961 -7.720061 -0.860602
v -8.356455 -4.916111 -0.822279
v -8.773579 -7.055426 -0.279144
v -9.426593 -7.083169 -0.257379
v -9.403872 -4.794130 -0.819763
v -8.770765 -1.128107 -0.837888
v -8.769557 -1.919177 -0.458824
v -9.354134 -1.133582 -0.807392
v -9.345776 -1.924802 -0.428328
v -8.912953 -10.813316 -0.890123
v -9.473779 -9.746770 -0.274337
v -9.496922 -10.798682 -0.859627
v -5.570383 -6.286951 0.584696
v -6.590556 -7.263248 -0.585546
v -4.459068 -0.455703 -0.390878
v -5.907261 -5.505403 0.239208
v -6.422416 -6.025115 -0.316942
v -5.063428 -2.605165 0.146685
v -8.310510 -5.520241 -0.413282
v -8.796665 -8.067333 -0.898884
v -8.771870 -4.786439 -0.857820
v -8.785262 -5.530799 -0.436058
v -9.432585 -8.033325 -0.856466
v -9.418989 -5.487556 -0.406279
v -8.887712 -9.758723 -0.304833
v 5.669824 -6.286950 0.584696
v 6.689996 -7.263248 -0.585546
v 4.557239 -0.455703 -0.390878
v 3.783146 0.372322 0.386245
v 6.009169 -5.505649 0.239208
v 6.524949 -6.025344 -0.316942
v 5.557808 -2.964490 -0.236702
v 5.164761 -2.605400 0.146685
v 8.454870 -6.805059 -0.268670
v 8.522875 -7.723376 -0.860602
v 8.449752 -4.919382 -0.822279
v 8.408820 -5.523644 -0.413282
v 8.882126 -7.057201 -0.279144
v 8.913219 -8.068893 -0.898884
v 8.862454 -4.788298 -0.857820
v 8.881740 -5.532529 -0.436058
v 9.535338 -7.079774 -0.257379
v 9.548851 -8.029852 -0.856466
v 9.494499 -4.790986 -0.819763
v 9.515103 -5.484271 -0.406279
v 8.832393 -1.130090 -0.837888
v 8.837444 -1.921144 -0.458824
v 9.415786 -1.130947 -0.807392
v 9.413691 -1.922208 -0.428328
v 9.017653 -9.759510 -0.304833
v 9.051241 -10.813869 -0.890123
v 9.603607 -9.742918 -0.274337
v 9.635076 -10.794613 -0.859627
vn -0.204800 0.116400 0.971900
vn 0.043300 0.431900 0.900900
vn -0.611100 -0.727000 0.313200
vn 0.613000 -0.725900 0.311900
vn 0.105500 0.055700 -0.992900
vn 0.159000 0.104400 -0.981700
vn -0.731400 -0.035200 0.681000
vn -0.106100 0.055800 -0.992800
vn 0.821400 0.333700 0.462600
vn 0.703100 0.239500 -0.669500
vn 0.589900 0.621600 0.515400
vn 0.504600 0.169900 0.846400
vn 0.730400 -0.037100 0.682000
vn 0.814700 0.346500 0.464900
vn 0.067900 0.107700 0.991900
vn -0.241400 -0.023200 -0.970200
vn 0.261600 0.110100 0.958900
vn -0.286300 -0.666100 0.688700
vn -0.999900 -0.010200 0.010800
vn -0.328600 -0.514200 0.792200
vn -0.016300 0.524600 0.851200
vn -0.088600 0.011200 -0.996000
vn 0.999800 0.015200 -0.010900
vn 0.063000 0.012900 -0.997900
vn -0.041800 0.097200 0.994400
vn 0.059600 0.001400 -0.998200
vn -0.046700 0.431500 0.900900
vn 0.056300 0.005200 -0.998400
vn -0.050000 0.005200 0.998700
vn 0.999400 0.025000 0.023400
vn -0.030600 -0.486300 0.873200
vn 0.999500 0.028500 -0.010200
vn -0.042200 -0.009500 0.999100
vn -0.998200 -0.050200 0.032500
vn 0.134100 0.058900 0.989200
vn 0.203400 0.116400 0.972200
vn -0.160000 0.104500 -0.981600
vn -0.821100 0.331600 0.464600
vn -0.135000 0.059000 0.989100
vn -0.707000 0.240400 -0.665100
vn -0.588200 0.620900 0.518200
vn -0.506300 0.170300 0.845400
vn -0.814500 0.345600 0.466000
vn -0.068100 0.107200 0.991900
vn 0.240800 -0.022200 -0.970300
vn -0.261100 0.109400 0.959100
vn 0.285500 -0.665100 0.690000
vn 0.999900 -0.002300 0.010800
vn 0.330900 -0.512000 0.792700
vn 0.014500 0.524700 0.851200
vn 0.088300 0.011900 -0.996000
vn -0.999900 0.007300 -0.010900
vn -0.063100 0.012400 -0.997900
vn 0.041000 0.097500 0.994400
vn -0.059600 0.000900 -0.998200
vn -0.056400 0.004800 -0.998400
vn 0.049900 0.005600 0.998700
vn -0.999600 0.017000 0.023400
vn 0.034500 -0.486100 0.873200
vn -0.999700 0.020600 -0.010200
vn 0.042300 -0.009200 0.999100
vn 0.998600 -0.042300 0.032500
usemtl Material.002
s off
f 1//1 6//1 2//1
f 15//2 14//2 16//2 17//2
f 3//3 35//3 34//3 4//3
f 3//4 4//4 21//4 22//4
f 35//5 3//5 5//5 36//5
f 36//6 5//6 1//6
f 22//7 21//7 24//7 25//7
f 22//8 23//8 5//8 3//8
f 37//9 36//9 1//9
f 36//10 40//10 39//10 35//10
f 41//11 45//11 44//11 40//11
f 34//12 38//12 41//12 37//12
f 35//13 39//13 38//13 34//13
f 37//14 41//14 40//14 36//14
f 42//15 46//15 49//15 45//15
f 40//16 44//16 43//16 39//16
f 38//17 42//17 45//17 41//17
f 39//18 43//18 42//18 38//18
f 49//19 55//19 54//19 48//19
f 43//20 47//20 46//20 42//20
f 45//21 49//21 48//21 44//21
f 44//22 48//22 47//22 43//22
f 50//23 51//23 52//23 53//23
f 48//24 52//24 51//24 47//24
f 46//25 50//25 53//25 49//25
f 51//26 61//26 59//26 47//26
f 55//27 57//27 56//27 54//27
f 48//28 54//28 56//28 52//28
f 53//29 57//29 55//29 49//29
f 52//30 56//30 57//30 53//30
f 59//31 61//31 60//31 58//31
f 50//32 60//32 61//32 51//32
f 46//33 58//33 60//33 50//33
f 47//34 59//34 58//34 46//34
f 37//35 2//35 4//35 34//35
f 1//36 2//36 37//36
f 23//37 1//37 5//37
f 6//38 1//38 23//38
f 6//39 21//39 4//39 2//39
f 23//40 22//40 25//40 7//40
f 26//41 7//41 10//41 27//41
f 21//42 6//42 26//42 24//42
f 6//43 23//43 7//43 26//43
f 8//44 27//44 30//44 11//44
f 7//45 25//45 9//45 10//45
f 24//46 26//46 27//46 8//46
f 25//47 24//47 8//47 9//47
f 30//48 29//48 14//48 15//48
f 9//49 8//49 11//49 28//49
f 27//50 10//50 29//50 30//50
f 10//51 9//51 28//51 29//51
f 12//52 32//52 13//52 31//52
f 29//53 28//53 31//53 13//53
f 11//54 30//54 32//54 12//54
f 31//55 28//55 18//55 20//55
f 29//56 13//56 16//56 14//56
f 32//57 30//57 15//57 17//57
f 13//58 32//58 17//58 16//58
f 18//59 33//59 19//59 20//59
f 12//60 31//60 20//60 19//60
f 11//61 12//61 19//61 33//61
f 28//62 11//62 33//62 18//62
